<svg id="Layer_1" data-name="Layer 1" xmlns="http://www.w3.org/2000/svg" xmlns:xlink="http://www.w3.org/1999/xlink" viewBox="0 0 700 700"><defs><style>.cls-1{fill:none;}.cls-2{fill:#c7c9d0;}.cls-3{clip-path:url(#clip-path);}.cls-4{clip-path:url(#clip-path-3);}.cls-5{clip-path:url(#clip-path-4);}.cls-6{clip-path:url(#clip-path-6);}</style><clipPath id="clip-path"><rect class="cls-1" x="-227.75" y="-429.57" width="1092" height="1580"/></clipPath><clipPath id="clip-path-3"><rect class="cls-1" x="572.25" y="-429.57" width="1092" height="1580"/></clipPath><clipPath id="clip-path-4"><rect class="cls-1" x="-221" y="-430.32" width="1092" height="1580"/></clipPath><clipPath id="clip-path-6"><rect class="cls-1" x="579" y="-430.32" width="1092" height="1580"/></clipPath></defs><g id="Layer_4" data-name="Layer 4"><polygon class="cls-2" points="299.62 154.69 306.36 153.9 306.33 154.99 299.62 154.69"/><polygon class="cls-2" points="515.25 201.88 522.03 201.14 520.38 204.7 515.25 201.88"/><polygon class="cls-2" points="615.51 559.5 608.82 560.21 606.76 544.65 615.18 558.56 615.51 559.5"/><polyline class="cls-2" points="608.84 560.26 609.82 560.15 615.57 559.51 615.42 559.2 608.75 560.07"/><polyline class="cls-2" points="608.91 560.25 608.83 560.26 608.8 560.19"/></g><g id="Layer_2" data-name="Layer 2"><g class="cls-3"><g class="cls-3"><path class="cls-2" d="M352.45,423c109.1,0,204.49,55.09,256.38,137.26C593.75,421.33,484.72,313.53,352.45,313.53S111.21,421.28,96.12,560.22C148,478.05,243.35,423,352.45,423"/><path class="cls-2" d="M428.05,487.89c0,42.72-33.85,77.34-75.6,77.34s-75.59-34.62-75.59-77.34,33.84-77.33,75.59-77.33,75.6,34.62,75.6,77.33"/><polygon class="cls-2" points="237.76 383.12 162.74 430.28 29 207.61 104.02 160.44 237.76 383.12"/><rect class="cls-2" x="299.58" y="154.67" width="71.7" height="180.73"/><polygon class="cls-2" points="533.79 404.42 440.21 357.05 515.25 201.88 608.83 249.24 533.79 404.42"/></g></g><polyline class="cls-2" points="102.85 559.49 96.1 560.24 106.15 543.9"/><polygon class="cls-2" points="96.1 560.24 96.22 559.29 96.24 559.97 96.17 560.21 96.1 560.24"/></g><g class="cls-5"><g class="cls-5"><path d="M359.2,422.26c109.1,0,204.49,55.09,256.38,137.26C600.5,420.58,491.47,312.78,359.2,312.78S117.91,420.58,102.82,559.52c51.9-82.17,147.28-137.26,256.38-137.26"/><path d="M434.8,487.14c0,42.72-33.85,77.34-75.6,77.34s-75.59-34.62-75.59-77.34,33.84-77.33,75.59-77.33,75.6,34.62,75.6,77.33"/><polygon points="244.51 382.37 169.49 429.53 35.75 206.86 110.77 159.69 244.51 382.37"/><rect x="306.33" y="153.92" width="71.7" height="180.73"/><polygon points="540.54 403.67 446.96 356.3 522 201.13 615.58 248.49 540.54 403.67"/></g></g><polygon class="cls-2" points="104.04 160.45 110.76 159.69 105.41 163.05 103.94 160.58 104.04 160.45"/></svg>